<mxfile host="app.diagrams.net" agent="Mozilla/5.0 (Windows NT 10.0; Win64; x64) AppleWebKit/537.36 (KHTML, like Gecko) Chrome/136.0.0.0 Safari/537.36" version="27.0.9">
  <diagram name="Page-1" id="tA_SJaqa-9wHxWihn57W">
    <mxGraphModel dx="1826" dy="1185" grid="0" gridSize="10" guides="1" tooltips="1" connect="1" arrows="1" fold="1" page="0" pageScale="1" pageWidth="850" pageHeight="1100" math="0" shadow="1">
      <root>
        <mxCell id="0" />
        <mxCell id="1" parent="0" />
        <mxCell id="yYGXFNO1V-ZtBMGJ8n_N-7" style="edgeStyle=orthogonalEdgeStyle;rounded=0;orthogonalLoop=1;jettySize=auto;html=1;exitX=0.5;exitY=1;exitDx=0;exitDy=0;" parent="1" source="y_sWD-JEh5Cgod3ZYhG4-1" target="yYGXFNO1V-ZtBMGJ8n_N-4" edge="1">
          <mxGeometry relative="1" as="geometry" />
        </mxCell>
        <mxCell id="y_sWD-JEh5Cgod3ZYhG4-1" value="" style="ellipse;html=1;shape=startState;fillColor=#000000;strokeColor=#ff0000;" parent="1" vertex="1">
          <mxGeometry x="196" y="-91" width="40" height="40" as="geometry" />
        </mxCell>
        <mxCell id="yYGXFNO1V-ZtBMGJ8n_N-9" style="edgeStyle=orthogonalEdgeStyle;rounded=0;orthogonalLoop=1;jettySize=auto;html=1;exitX=0.11;exitY=0.89;exitDx=0;exitDy=0;exitPerimeter=0;" parent="1" source="yYGXFNO1V-ZtBMGJ8n_N-4" target="yYGXFNO1V-ZtBMGJ8n_N-8" edge="1">
          <mxGeometry relative="1" as="geometry" />
        </mxCell>
        <mxCell id="yYGXFNO1V-ZtBMGJ8n_N-12" value="Login" style="edgeLabel;html=1;align=center;verticalAlign=middle;resizable=0;points=[];" parent="yYGXFNO1V-ZtBMGJ8n_N-9" vertex="1" connectable="0">
          <mxGeometry x="0.0315" y="-2" relative="1" as="geometry">
            <mxPoint as="offset" />
          </mxGeometry>
        </mxCell>
        <mxCell id="yYGXFNO1V-ZtBMGJ8n_N-4" value="Idle" style="strokeWidth=2;html=1;shape=mxgraph.flowchart.terminator;whiteSpace=wrap;" parent="1" vertex="1">
          <mxGeometry x="166" y="57" width="100" height="60" as="geometry" />
        </mxCell>
        <mxCell id="yYGXFNO1V-ZtBMGJ8n_N-10" style="edgeStyle=orthogonalEdgeStyle;rounded=0;orthogonalLoop=1;jettySize=auto;html=1;exitX=0.5;exitY=1;exitDx=0;exitDy=0;" parent="1" source="yYGXFNO1V-ZtBMGJ8n_N-8" target="yYGXFNO1V-ZtBMGJ8n_N-11" edge="1">
          <mxGeometry relative="1" as="geometry">
            <mxPoint x="139.8571428571429" y="360.7142857142858" as="targetPoint" />
          </mxGeometry>
        </mxCell>
        <mxCell id="yYGXFNO1V-ZtBMGJ8n_N-8" value="Login" style="rounded=1;whiteSpace=wrap;html=1;absoluteArcSize=1;arcSize=14;strokeWidth=2;" parent="1" vertex="1">
          <mxGeometry x="-8" y="135" width="100" height="100" as="geometry" />
        </mxCell>
        <mxCell id="yYGXFNO1V-ZtBMGJ8n_N-15" style="edgeStyle=orthogonalEdgeStyle;rounded=0;orthogonalLoop=1;jettySize=auto;html=1;exitX=0.5;exitY=1;exitDx=0;exitDy=0;exitPerimeter=0;entryX=0.417;entryY=0.01;entryDx=0;entryDy=0;entryPerimeter=0;" parent="1" source="yYGXFNO1V-ZtBMGJ8n_N-11" target="yYGXFNO1V-ZtBMGJ8n_N-16" edge="1">
          <mxGeometry relative="1" as="geometry">
            <mxPoint x="171.8571428571429" y="536.1428571428571" as="targetPoint" />
          </mxGeometry>
        </mxCell>
        <mxCell id="yYGXFNO1V-ZtBMGJ8n_N-17" value="Authentication succeeds&amp;nbsp;" style="edgeLabel;html=1;align=center;verticalAlign=middle;resizable=0;points=[];" parent="yYGXFNO1V-ZtBMGJ8n_N-15" vertex="1" connectable="0">
          <mxGeometry x="0.1666" y="1" relative="1" as="geometry">
            <mxPoint as="offset" />
          </mxGeometry>
        </mxCell>
        <mxCell id="yYGXFNO1V-ZtBMGJ8n_N-11" value="Club Coordinator Authentication" style="strokeWidth=2;html=1;shape=mxgraph.flowchart.decision;whiteSpace=wrap;" parent="1" vertex="1">
          <mxGeometry x="121.99714285714289" y="339.0042857142858" width="100" height="100" as="geometry" />
        </mxCell>
        <mxCell id="yYGXFNO1V-ZtBMGJ8n_N-13" style="edgeStyle=orthogonalEdgeStyle;rounded=0;orthogonalLoop=1;jettySize=auto;html=1;exitX=1;exitY=0.5;exitDx=0;exitDy=0;exitPerimeter=0;entryX=0.43;entryY=0.957;entryDx=0;entryDy=0;entryPerimeter=0;" parent="1" source="yYGXFNO1V-ZtBMGJ8n_N-11" target="yYGXFNO1V-ZtBMGJ8n_N-4" edge="1">
          <mxGeometry relative="1" as="geometry" />
        </mxCell>
        <mxCell id="yYGXFNO1V-ZtBMGJ8n_N-14" value="Authentication Failed" style="edgeLabel;html=1;align=center;verticalAlign=middle;resizable=0;points=[];" parent="yYGXFNO1V-ZtBMGJ8n_N-13" vertex="1" connectable="0">
          <mxGeometry x="-0.1783" y="1" relative="1" as="geometry">
            <mxPoint as="offset" />
          </mxGeometry>
        </mxCell>
        <mxCell id="yYGXFNO1V-ZtBMGJ8n_N-18" value="" style="rounded=1;whiteSpace=wrap;html=1;absoluteArcSize=1;arcSize=14;strokeWidth=2;" parent="1" vertex="1">
          <mxGeometry x="-83" y="757" width="450" height="146" as="geometry" />
        </mxCell>
        <mxCell id="8obg8ApnVDrmoj66XjRN-3" style="edgeStyle=orthogonalEdgeStyle;rounded=0;orthogonalLoop=1;jettySize=auto;html=1;exitX=0.5;exitY=1;exitDx=0;exitDy=0;entryX=0.5;entryY=0;entryDx=0;entryDy=0;" edge="1" parent="1" source="yYGXFNO1V-ZtBMGJ8n_N-16" target="yYGXFNO1V-ZtBMGJ8n_N-22">
          <mxGeometry relative="1" as="geometry" />
        </mxCell>
        <mxCell id="8obg8ApnVDrmoj66XjRN-4" style="edgeStyle=orthogonalEdgeStyle;rounded=0;orthogonalLoop=1;jettySize=auto;html=1;exitX=1;exitY=1;exitDx=0;exitDy=0;" edge="1" parent="1" source="yYGXFNO1V-ZtBMGJ8n_N-16" target="yYGXFNO1V-ZtBMGJ8n_N-23">
          <mxGeometry relative="1" as="geometry" />
        </mxCell>
        <mxCell id="yYGXFNO1V-ZtBMGJ8n_N-16" value="&amp;nbsp;Dashboard" style="rounded=1;whiteSpace=wrap;html=1;absoluteArcSize=1;arcSize=14;strokeWidth=2;" parent="1" vertex="1">
          <mxGeometry x="130" y="546" width="100" height="100" as="geometry" />
        </mxCell>
        <mxCell id="yYGXFNO1V-ZtBMGJ8n_N-19" value="Actions" style="text;html=1;align=center;verticalAlign=middle;resizable=0;points=[];autosize=1;strokeColor=none;fillColor=none;" parent="1" vertex="1">
          <mxGeometry x="-73.57" y="761" width="57" height="26" as="geometry" />
        </mxCell>
        <mxCell id="yYGXFNO1V-ZtBMGJ8n_N-83" style="edgeStyle=orthogonalEdgeStyle;rounded=0;orthogonalLoop=1;jettySize=auto;html=1;exitX=0.25;exitY=1;exitDx=0;exitDy=0;" parent="1" source="yYGXFNO1V-ZtBMGJ8n_N-21" target="yYGXFNO1V-ZtBMGJ8n_N-82" edge="1">
          <mxGeometry relative="1" as="geometry" />
        </mxCell>
        <mxCell id="yYGXFNO1V-ZtBMGJ8n_N-21" value="Request new item" style="rounded=1;whiteSpace=wrap;html=1;absoluteArcSize=1;arcSize=14;strokeWidth=2;" parent="1" vertex="1">
          <mxGeometry x="-60" y="793" width="100" height="100" as="geometry" />
        </mxCell>
        <mxCell id="8obg8ApnVDrmoj66XjRN-5" style="edgeStyle=orthogonalEdgeStyle;rounded=0;orthogonalLoop=1;jettySize=auto;html=1;exitX=0.5;exitY=1;exitDx=0;exitDy=0;entryX=1;entryY=0;entryDx=0;entryDy=0;" edge="1" parent="1" source="yYGXFNO1V-ZtBMGJ8n_N-23" target="yYGXFNO1V-ZtBMGJ8n_N-54">
          <mxGeometry relative="1" as="geometry" />
        </mxCell>
        <mxCell id="yYGXFNO1V-ZtBMGJ8n_N-23" value="Logout" style="rounded=1;whiteSpace=wrap;html=1;absoluteArcSize=1;arcSize=14;strokeWidth=2;" parent="1" vertex="1">
          <mxGeometry x="256" y="793" width="100" height="100" as="geometry" />
        </mxCell>
        <mxCell id="yYGXFNO1V-ZtBMGJ8n_N-22" value="Check Updates" style="rounded=1;whiteSpace=wrap;html=1;absoluteArcSize=1;arcSize=14;strokeWidth=2;" parent="1" vertex="1">
          <mxGeometry x="106" y="793" width="100" height="100" as="geometry" />
        </mxCell>
        <mxCell id="yYGXFNO1V-ZtBMGJ8n_N-54" value="" style="ellipse;html=1;shape=endState;fillColor=#000000;strokeColor=#ff0000;" parent="1" vertex="1">
          <mxGeometry x="352" y="1641" width="30" height="30" as="geometry" />
        </mxCell>
        <mxCell id="yYGXFNO1V-ZtBMGJ8n_N-74" value="" style="rounded=1;whiteSpace=wrap;html=1;absoluteArcSize=1;arcSize=14;strokeWidth=2;" parent="1" vertex="1">
          <mxGeometry x="-93" y="937.5700000000002" width="159" height="630" as="geometry" />
        </mxCell>
        <mxCell id="yYGXFNO1V-ZtBMGJ8n_N-75" style="edgeStyle=orthogonalEdgeStyle;rounded=0;orthogonalLoop=1;jettySize=auto;html=1;exitX=0.5;exitY=1;exitDx=0;exitDy=0;" parent="1" source="yYGXFNO1V-ZtBMGJ8n_N-76" target="yYGXFNO1V-ZtBMGJ8n_N-78" edge="1">
          <mxGeometry relative="1" as="geometry">
            <mxPoint x="-13.571428571428214" y="1154.5700000000002" as="targetPoint" />
          </mxGeometry>
        </mxCell>
        <mxCell id="yYGXFNO1V-ZtBMGJ8n_N-76" value="Select Category" style="rounded=1;whiteSpace=wrap;html=1;absoluteArcSize=1;arcSize=14;strokeWidth=2;" parent="1" vertex="1">
          <mxGeometry x="-63.571428571428555" y="963.9985714285713" width="100" height="100" as="geometry" />
        </mxCell>
        <mxCell id="yYGXFNO1V-ZtBMGJ8n_N-77" style="edgeStyle=orthogonalEdgeStyle;rounded=0;orthogonalLoop=1;jettySize=auto;html=1;exitX=0.5;exitY=1;exitDx=0;exitDy=0;" parent="1" source="yYGXFNO1V-ZtBMGJ8n_N-78" target="yYGXFNO1V-ZtBMGJ8n_N-80" edge="1">
          <mxGeometry relative="1" as="geometry">
            <mxPoint x="-13.400000000000091" y="1273.9700000000003" as="targetPoint" />
          </mxGeometry>
        </mxCell>
        <mxCell id="yYGXFNO1V-ZtBMGJ8n_N-78" value="Enter Description" style="rounded=1;whiteSpace=wrap;html=1;absoluteArcSize=1;arcSize=14;strokeWidth=2;" parent="1" vertex="1">
          <mxGeometry x="-63.571428571428214" y="1110.5700000000002" width="100" height="100" as="geometry" />
        </mxCell>
        <mxCell id="yYGXFNO1V-ZtBMGJ8n_N-79" style="edgeStyle=orthogonalEdgeStyle;rounded=0;orthogonalLoop=1;jettySize=auto;html=1;exitX=0.5;exitY=1;exitDx=0;exitDy=0;" parent="1" source="yYGXFNO1V-ZtBMGJ8n_N-80" target="yYGXFNO1V-ZtBMGJ8n_N-81" edge="1">
          <mxGeometry relative="1" as="geometry">
            <mxPoint x="-13.400000000000091" y="1425.17" as="targetPoint" />
          </mxGeometry>
        </mxCell>
        <mxCell id="yYGXFNO1V-ZtBMGJ8n_N-80" value="Confirm Submission" style="rounded=1;whiteSpace=wrap;html=1;absoluteArcSize=1;arcSize=14;strokeWidth=2;" parent="1" vertex="1">
          <mxGeometry x="-63.57000000000011" y="1259.5700000000002" width="100" height="100" as="geometry" />
        </mxCell>
        <mxCell id="yYGXFNO1V-ZtBMGJ8n_N-81" value="Submission Confirmation Message" style="strokeWidth=2;html=1;shape=mxgraph.flowchart.start_2;whiteSpace=wrap;" parent="1" vertex="1">
          <mxGeometry x="-77.86000000000001" y="1443.5700000000002" width="128.57" height="100" as="geometry" />
        </mxCell>
        <mxCell id="yYGXFNO1V-ZtBMGJ8n_N-82" value="Request for new item" style="text;html=1;align=center;verticalAlign=middle;whiteSpace=wrap;rounded=0;" parent="1" vertex="1">
          <mxGeometry x="-98" y="934" width="176" height="30" as="geometry" />
        </mxCell>
        <mxCell id="8obg8ApnVDrmoj66XjRN-2" style="edgeStyle=orthogonalEdgeStyle;rounded=0;orthogonalLoop=1;jettySize=auto;html=1;exitX=0;exitY=1;exitDx=0;exitDy=0;entryX=0.63;entryY=0.03;entryDx=0;entryDy=0;entryPerimeter=0;" edge="1" parent="1" source="yYGXFNO1V-ZtBMGJ8n_N-16" target="yYGXFNO1V-ZtBMGJ8n_N-21">
          <mxGeometry relative="1" as="geometry" />
        </mxCell>
      </root>
    </mxGraphModel>
  </diagram>
</mxfile>
